#!OML:ASF H:\Dans Jumps\Project 1\Capture day 1\Session 1\subject.ASF
:FULLY-SPECIFIED
:DEGREES
261
root 0.585058 15.4775 -15.5346 14.1837 0.0103961 -1.77405
lowerback 14.0332 -0.104773 -0.668281
upperback 5.6366 -0.152646 2.31172
thorax -1.91929 -0.107584 2.81633
lowerneck -17.863 0.990384 -0.573352
upperneck 13.1784 1.84285 -2.08154
head 6.97467 0.660792 -0.381584
rclavicle -2.38542e-015 1.15295e-014
rhumerus -49.3759 -18.3735 -63.0398
rradius 24.3636
rwrist 31.4443
rhand -17.1038 -24.9712
rfingers 7.12502
rthumb 9.13521 -54.7533
lclavicle -2.38542e-015 1.15295e-014
lhumerus -48.4263 -0.939629 82.7
lradius 19.3543
lwrist 13.7802
lhand -27.2013 -3.19727
lfingers 7.12502
lthumb -0.614471 26.7816
rfemur -50.9548 -2.89521 21.5227
rtibia 65.7212
rfoot -27.9945 -9.23593
rtoes 3.60224
lfemur -51.9149 9.02336 -21.6383
ltibia 64.9106
lfoot -25.3654 11.253
ltoes -11.2017
262
root 0.583381 15.4276 -15.5512 14.5332 0.039183 -1.78229
lowerback 14.3128 -0.0842334 -0.693288
upperback 5.67216 -0.127443 2.32609
thorax -2.03268 -0.0948043 2.84435
lowerneck -18.0122 0.990672 -0.559596
upperneck 12.8668 1.83627 -2.09342
head 6.89835 0.659996 -0.38821
rclavicle 5.56597e-015 1.19271e-014
rhumerus -50.3518 -18.2543 -62.7165
rradius 24.4391
rwrist 31.2455
rhand -17.1295 -24.8746
rfingers 7.12502
rthumb 9.11035 -54.6578
lclavicle 5.56597e-015 1.19271e-014
lhumerus -49.2982 -0.651374 82.6099
lradius 19.1144
lwrist 13.7139
lhand -26.9842 -3.11904
lfingers 7.12502
lthumb -0.404848 26.8603
rfemur -51.757 -2.83695 21.555
rtibia 66.2664
rfoot -28.1133 -9.34517
rtoes 3.69144
lfemur -52.737 8.94291 -21.688
ltibia 65.44
lfoot -25.3913 11.3723
ltoes -11.3133
263
root 0.582863 15.4746 -15.5736 14.8965 0.0722762 -1.78744
lowerback 14.5948 -0.0638911 -0.723124
upperback 5.69706 -0.10308 2.34059
thorax -2.15831 -0.0822577 2.87537
lowerneck -18.1641 0.990436 -0.550164
upperneck 12.5518 1.82898 -2.09931
head 6.82129 0.659198 -0.392264
rclavicle 4.17448e-015 -7.35503e-015
rhumerus -51.3374 -18.0772 -62.453
rradius 24.5708
rwrist 30.9673
rhand -17.1417 -24.7676
rfingers 7.12502
rthumb 9.09866 -54.5513
lclavicle 4.17448e-015 -7.35503e-015
lhumerus -50.1935 -0.385973 82.5298
lradius 18.9149
lwrist 13.6647
lhand -26.7728 -3.06298
lfingers 7.12502
lthumb -0.200645 26.9167
rfemur -52.1449 -2.78658 21.5902
rtibia 66.3677
rfoot -28.2197 -9.47025
rtoes 3.69238
lfemur -53.1369 8.85268 -21.7395
ltibia 65.5318
lfoot -25.4225 11.4944
ltoes -11.4485
264
root 0.580827 15.4275 -15.5898 15.276 0.110846 -1.7869
lowerback 14.8782 -0.0443632 -0.759135
upperback 5.70812 -0.0805527 2.35498
thorax -2.2989 -0.0703673 2.91009
lowerneck -18.3123 0.989169 -0.547056
upperneck 12.2318 1.8207 -2.0989
head 6.74187 0.658255 -0.393397
rclavicle -3.97569e-015 3.57812e-015
rhumerus -52.3387 -17.8606 -62.2299
rradius 24.7462
rwrist 30.6387
rhand -17.1172 -24.6505
rfingers 7.12502
rthumb 9.12227 -54.4332
lclavicle -3.97569e-015 3.57812e-015
lhumerus -51.1212 -0.15644 82.4738
lradius 18.7661
lwrist 13.662
lhand -26.5756 -2.99899
lfingers 7.12502
lthumb -0.0101634 26.9808
rfemur -52.9619 -2.75306 21.6228
rtibia 66.8761
rfoot -28.3201 -9.61222
rtoes 3.57636
lfemur -53.9637 8.75126 -21.7928
ltibia 66.0212
lfoot -25.4487 11.6131
ltoes -11.6006
265
root 0.578578 15.3808 -15.6055 15.6716 0.155575 -1.77928
lowerback 15.1595 -0.026667 -0.80039
upperback 5.70682 -0.0612339 2.36712
thorax -2.45107 -0.0597991 2.94594
lowerneck -18.4532 0.986939 -0.551404
upperneck 11.9031 1.81105 -2.088
head 6.65823 0.65739 -0.390132
rclavicle -4.57205e-015 -1.43125e-014
rhumerus -53.348 -17.621 -62.0406
rradius 24.9479
rwrist 30.2558
rhand -17.0606 -24.5326
rfingers 7.12502
rthumb 9.17688 -54.3129
lclavicle -4.57205e-015 -1.43125e-014
lhumerus -52.0788 0.0223319 82.4534
lradius 18.6696
lwrist 13.7572
lhand -26.3071 -2.82119
lfingers 7.12502
lthumb 0.249166 27.1584
rfemur -53.7943 -2.73481 21.6535
rtibia 67.3738
rfoot -28.4096 -9.7652
rtoes 3.36648
lfemur -54.801 8.63954 -21.8518
ltibia 66.4996
lfoot -25.4794 11.7269
ltoes -11.749
266
root 0.576102 15.3345 -15.6206 16.0792 0.20637 -1.7683
lowerback 15.4399 -0.0112464 -0.840473
upperback 5.69625 -0.0449338 2.37578
thorax -2.61222 -0.0504252 2.97798
lowerneck -18.5985 0.980728 -0.571911
upperneck 11.5774 1.79694 -2.05544
head 6.57594 0.655494 -0.377747
rclavicle 1.98785e-015 -1.8487e-014
rhumerus -54.3554 -17.3792 -61.8728
rradius 25.1506
rwrist 29.8233
rhand -16.9944 -24.4142
rfingers 7.12502
rthumb 9.24076 -54.1917
lclavicle 1.98785e-015 -1.8487e-014
lhumerus -53.0582 0.147801 82.4688
lradius 18.6253
lwrist 13.9853
lhand -25.9898 -2.56664
lfingers 7.12502
lthumb 0.555633 27.4124
rfemur -54.6863 -2.73003 21.6864
rtibia 68.036
rfoot -28.6122 -9.95083
rtoes 3.08565
lfemur -55.6975 8.52136 -21.9127
ltibia 67.1514
lfoot -25.6352 11.8896
ltoes -11.8927
267
root 0.573323 15.2884 -15.6349 16.4983 0.262546 -1.75547
lowerback 15.7145 0.00176711 -0.878994
upperback 5.68036 -0.0318359 2.38138
thorax -2.77558 -0.04244 3.00642
lowerneck -18.7447 0.973507 -0.593341
upperneck 11.2478 1.78093 -2.01711
head 6.49244 0.653192 -0.363605
rclavicle 2.38542e-015 -1.43125e-014
rhumerus -55.3492 -17.1516 -61.7137
rradius 25.3374
rwrist 29.3419
rhand -16.9161 -24.2873
rfingers 7.12502
rthumb 9.31632 -54.0615
lclavicle 2.38542e-015 -1.43125e-014
lhumerus -54.0479 0.227009 82.5179
lradius 18.626
lwrist 14.3586
lhand -25.6137 -2.24481
lfingers 7.12502
lthumb 0.918821 27.733
rfemur -55.5828 -2.7335 21.7203
rtibia 68.6875
rfoot -28.8132 -10.1201
rtoes 2.82719
lfemur -56.6011 8.40299 -21.9762
ltibia 67.794
lfoot -25.7904 12.049
ltoes -12.0302
268
root 0.570253 15.2425 -15.6485 16.9229 0.324187 -1.74563
lowerback 15.9874 0.0120717 -0.911837
upperback 5.66168 -0.0216707 2.3855
thorax -2.94077 -0.035729 3.0306
lowerneck -18.8914 0.967042 -0.609904
upperneck 10.9143 1.76468 -1.97755
head 6.40781 0.651116 -0.349928
rclavicle 2.78299e-015 2.46493e-014
rhumerus -56.3222 -16.9548 -61.5441
rradius 25.4934
rwrist 28.8287
rhand -16.8133 -24.138
rfingers 7.12502
rthumb 9.41545 -53.9077
lclavicle 2.78299e-015 2.46493e-014
lhumerus -55.0463 0.272903 82.5905
lradius 18.6653
lwrist 14.8634
lhand -25.2702 -1.97951
lfingers 7.12502
lthumb 1.25061 27.9966
rfemur -56.4757 -2.7425 21.7597
rtibia 69.3282
rfoot -29.0125 -10.2686
rtoes 2.62359
lfemur -57.5059 8.29218 -22.0377
ltibia 68.4287
lfoot -25.9471 12.1996
ltoes -12.1564
269
root 0.566973 15.1968 -15.661 17.3508 0.388795 -1.74275
lowerback 16.259 0.0203693 -0.937149
upperback 5.64201 -0.0131072 2.39081
thorax -3.10606 -0.0296992 3.05205
lowerneck -19.0455 0.960232 -0.621732
upperneck 10.5845 1.74811 -1.94422
head 6.3257 0.648426 -0.339067
rclavicle 7.15625e-015 0
rhumerus -57.2735 -16.7862 -61.3559
rradius 25.6169
rwrist 28.3256
rhand -16.7039 -23.9642
rfingers 7.12502
rthumb 9.52108 -53.7291
lclavicle 7.15625e-015 0
lhumerus -56.0448 0.3099 82.6683
lradius 18.7316
lwrist 15.4572
lhand -24.9787 -1.7871
lfingers 7.12502
lthumb 1.53212 28.1871
rfemur -57.3633 -2.75028 21.8068
rtibia 69.9602
rfoot -29.2084 -10.3988
rtoes 2.48487
lfemur -58.4112 8.19084 -22.0931
ltibia 69.0583
lfoot -26.1024 12.3423
ltoes -12.2642
270
root 0.563487 15.1509 -15.6726 17.7819 0.455662 -1.74697
lowerback 16.5292 0.0273154 -0.957915
upperback 5.62072 -0.0055803 2.39922
thorax -3.27217 -0.0241022 3.07443
lowerneck -19.2004 0.955228 -0.621507
upperneck 10.2551 1.73351 -1.92708
head 6.24416 0.645734 -0.335176
rclavicle -1.31198e-014 6.95746e-015
rhumerus -58.2101 -16.6403 -61.143
rradius 25.7178
rwrist 27.8753
rhand -16.5556 -23.7902
rfingers 7.12502
rthumb 9.6641 -53.5485
lclavicle -1.31198e-014 6.95746e-015
lhumerus -57.0479 0.349297 82.7436
lradius 18.8112
lwrist 16.0809
lhand -24.8559 -1.79834
lfingers 7.12502
lthumb 1.65079 28.175
rfemur -58.2477 -2.75512 21.8613
rtibia 70.5864
rfoot -29.3968 -10.5172
rtoes 2.39407
lfemur -59.3189 8.09941 -22.142
ltibia 69.6861
lfoot -26.2538 12.4797
ltoes -12.3715
271
root 0.559823 15.1045 -15.6833 18.2179 0.51467 -1.75998
lowerback 16.7957 0.0372802 -0.978553
upperback 5.59677 0.0059511 2.41099
thorax -3.43929 -0.0164824 3.09955
lowerneck -19.3594 0.951264 -0.608331
upperneck 9.93303 1.71996 -1.92825
head 6.16596 0.642343 -0.339139
rclavicle 2.78299e-015 4.57205e-015
rhumerus -59.1367 -16.5077 -60.9098
rradius 25.796
rwrist 27.5034
rhand -16.4305 -23.6103
rfingers 7.12502
rthumb 9.7848 -53.363
lclavicle 2.78299e-015 4.57205e-015
lhumerus -58.0528 0.399144 82.8086
lradius 18.8943
lwrist 16.6838
lhand -24.8741 -1.95242
lfingers 7.12502
lthumb 1.63319 28.0211
rfemur -59.1348 -2.74766 21.9225
rtibia 71.2094
rfoot -29.5717 -10.6357
rtoes 2.31071
lfemur -60.2326 8.02569 -22.1854
ltibia 70.316
lfoot -26.4034 12.611
ltoes -12.4715
272
root 0.555884 15.0571 -15.6935 18.6645 0.56417 -1.78451
lowerback 17.054 0.0511952 -1.00009
upperback 5.56824 0.0226518 2.42806
thorax -3.60715 -0.00626793 3.12976
lowerneck -19.5184 0.947494 -0.591251
upperneck 9.61562 1.70755 -1.9419
head 6.08941 0.638497 -0.347614
rclavicle 3.18055e-015 -1.27222e-014
rhumerus -60.0549 -16.3729 -60.6673
rradius 25.859
rwrist 27.2379
rhand -16.3323 -23.4456
rfingers 7.12502
rthumb 9.87958 -53.1938
lclavicle 3.18055e-015 -1.27222e-014
lhumerus -59.0535 0.465355 82.8593
lradius 18.9691
lwrist 17.2196
lhand -25.0175 -2.21588
lfingers 7.12502
lthumb 1.49464 27.7586
rfemur -60.0363 -2.72376 21.9932
rtibia 71.8338
rfoot -29.7306 -10.7556
rtoes 2.22593
lfemur -61.163 7.96805 -22.22
ltibia 70.9522
lfoot -26.5456 12.7415
ltoes -12.5767
